<?xml version="1.0" encoding="UTF-8"?>
<svg version="1.1" xmlns="http://www.w3.org/2000/svg" width="192" height="192">
<path d="M0 0 C63.36 0 126.72 0 192 0 C192 63.36 192 126.72 192 192 C128.64 192 65.28 192 0 192 C0 128.64 0 65.28 0 0 Z " fill="#060606" transform="translate(0,0)"/>
<path d="M0 0 C1.11246094 -0.020625 2.22492188 -0.04125 3.37109375 -0.0625 C26.872062 -0.17193408 47.61687399 11.04783544 64.375 26.8125 C74.29804794 37.01638892 80.92501341 48.81192169 85.375 62.25 C85.71402344 63.21292969 86.05304688 64.17585938 86.40234375 65.16796875 C88.63551216 72.79367285 88.67992427 80.41229527 88.75 88.3125 C88.76401855 89.40087158 88.77803711 90.48924316 88.79248047 91.6105957 C88.65489318 114.9986703 77.44637615 135.63831681 61.75 152.3125 C49.89757012 163.89183242 31.31414372 174.89924008 14.484375 175.35546875 C13.45828125 175.32066406 12.4321875 175.28585938 11.375 175.25 C8.33163503 165.661923 6.15353464 156.31717769 5.375 146.25 C5.280979 145.08549316 5.280979 145.08549316 5.18505859 143.89746094 C4.51398855 134.34369189 4.01268451 126.73825299 10.55078125 119.0625 C11.15277344 118.464375 11.75476563 117.86625 12.375 117.25 C13.13296875 116.40501953 13.13296875 116.40501953 13.90625 115.54296875 C16.13685395 113.57932538 18.49404505 113.57010611 21.375 113.25 C21.375 112.59 21.375 111.93 21.375 111.25 C26.34618456 108.1908095 30.66262648 107.45026771 36.375 108.25 C36.96539062 108.58386719 37.55578125 108.91773437 38.1640625 109.26171875 C41.41891573 110.71662664 44.63150114 110.46085158 48.125 110.375 C49.17107422 110.36146484 49.17107422 110.36146484 50.23828125 110.34765625 C51.95066958 110.32419888 53.66288004 110.28833104 55.375 110.25 C55.375 110.91 55.375 111.57 55.375 112.25 C59.6914922 113.01173392 63.11933453 113.41063604 67.375 112.25 C67.375 110.93 67.375 109.61 67.375 108.25 C69.355 107.59 71.335 106.93 73.375 106.25 C73.375 104.93 73.375 103.61 73.375 102.25 C74.035 102.25 74.695 102.25 75.375 102.25 C76.55947243 93.59183121 76.55947243 93.59183121 74.375 85.25 C74.02523242 83.92088318 73.68403983 82.58917261 73.375 81.25 C72.7975 81.12625 72.22 81.0025 71.625 80.875 C70.8825 80.66875 70.14 80.4625 69.375 80.25 C68.67375 80.064375 67.9725 79.87875 67.25 79.6875 C64.12911116 77.29481856 64.10442748 74.01870867 63.375 70.25 C64.035 69.92 64.695 69.59 65.375 69.25 C65.375 68.26 65.375 67.27 65.375 66.25 C64.715 65.92 64.055 65.59 63.375 65.25 C63.705 62.28 64.035 59.31 64.375 56.25 C63.715 56.25 63.055 56.25 62.375 56.25 C61.385 53.775 61.385 53.775 60.375 51.25 C59.385 51.25 58.395 51.25 57.375 51.25 C57.375 50.59 57.375 49.93 57.375 49.25 C54.405 49.745 54.405 49.745 51.375 50.25 C51.375 50.91 51.375 51.57 51.375 52.25 C50.385 51.92 49.395 51.59 48.375 51.25 C48.375 49.93 48.375 48.61 48.375 47.25 C47.385 47.25 46.395 47.25 45.375 47.25 C43.6875 45.75 43.6875 45.75 42.375 44.25 C40.395 45.24 40.395 45.24 38.375 46.25 C38.045 45.26 37.715 44.27 37.375 43.25 C36.42625 43.085 35.4775 42.92 34.5 42.75 C31.375 41.25 31.375 41.25 30.41796875 38.78515625 C29.93683946 36.8271916 29.50058285 34.85756954 29.11328125 32.87890625 C28.32177723 30.06048188 27.68198071 28.99567153 25.375 27.25 C23.89 26.755 23.89 26.755 22.375 26.25 C22.375 25.59 22.375 24.93 22.375 24.25 C21.055 24.58 19.735 24.91 18.375 25.25 C18.375 24.59 18.375 23.93 18.375 23.25 C16.395 23.58 14.415 23.91 12.375 24.25 C11.88 22.27 11.88 22.27 11.375 20.25 C10.055 20.25 8.735 20.25 7.375 20.25 C7.375 19.59 7.375 18.93 7.375 18.25 C2.755 18.25 -1.865 18.25 -6.625 18.25 C-6.625 18.91 -6.625 19.57 -6.625 20.25 C-7.945 20.25 -9.265 20.25 -10.625 20.25 C-10.955 21.57 -11.285 22.89 -11.625 24.25 C-13.605 23.92 -15.585 23.59 -17.625 23.25 C-17.625 23.91 -17.625 24.57 -17.625 25.25 C-18.945 24.92 -20.265 24.59 -21.625 24.25 C-21.625 24.91 -21.625 25.57 -21.625 26.25 C-22.7696875 26.806875 -22.7696875 26.806875 -23.9375 27.375 C-28.09574837 30.27610351 -29.14470052 34.56032292 -30.015625 39.4375 C-30.21671875 40.035625 -30.4178125 40.63375 -30.625 41.25 C-32.61223268 41.95381157 -34.61277953 42.6211811 -36.625 43.25 C-36.955 44.24 -37.285 45.23 -37.625 46.25 C-38.285 46.25 -38.945 46.25 -39.625 46.25 C-39.625 45.59 -39.625 44.93 -39.625 44.25 C-41.60036745 44.59786708 -41.60036745 44.59786708 -43.625 45.25 C-44.12 46.24 -44.12 46.24 -44.625 47.25 C-45.615 47.25 -46.605 47.25 -47.625 47.25 C-47.955 48.9 -48.285 50.55 -48.625 52.25 C-49.285 52.25 -49.945 52.25 -50.625 52.25 C-50.625 51.59 -50.625 50.93 -50.625 50.25 C-55.22990256 50.09693685 -55.22990256 50.09693685 -59.625 51.25 C-62.48586899 55.46601746 -62.76688203 60.28412887 -62.625 65.25 C-63.615 65.745 -63.615 65.745 -64.625 66.25 C-64.52960938 66.85328125 -64.43421875 67.4565625 -64.3359375 68.078125 C-64.22507812 68.87734375 -64.11421875 69.6765625 -64 70.5 C-63.82597656 71.68335937 -63.82597656 71.68335937 -63.6484375 72.890625 C-63.62140259 75.61213878 -64.16432697 76.97673412 -65.625 79.25 C-68.2455332 80.94066658 -69.45129722 81.25 -72.625 81.25 C-72.74875 81.765625 -72.8725 82.28125 -73 82.8125 C-73.625 85.25 -73.625 85.25 -74.75 88.375 C-75.82349747 93.12906023 -75.75463387 97.49460581 -74.625 102.25 C-73.965 102.58 -73.305 102.91 -72.625 103.25 C-72.625 104.24 -72.625 105.23 -72.625 106.25 C-70.645 106.91 -68.665 107.57 -66.625 108.25 C-66.625 109.57 -66.625 110.89 -66.625 112.25 C-64.645 111.755 -64.645 111.755 -62.625 111.25 C-62.13 112.24 -62.13 112.24 -61.625 113.25 C-60.14 113.745 -60.14 113.745 -58.625 114.25 C-58.625 113.59 -58.625 112.93 -58.625 112.25 C-57.305 112.25 -55.985 112.25 -54.625 112.25 C-54.625 111.59 -54.625 110.93 -54.625 110.25 C-53.58859375 110.27320312 -52.5521875 110.29640625 -51.484375 110.3203125 C-50.11459056 110.33907667 -48.7447983 110.35727618 -47.375 110.375 C-46.35212891 110.40013672 -46.35212891 110.40013672 -45.30859375 110.42578125 C-41.46615437 110.46308649 -38.95056276 110.130613 -35.625 108.25 C-29.91262648 107.45026771 -25.59618456 108.1908095 -20.625 111.25 C-20.625 111.91 -20.625 112.57 -20.625 113.25 C-19.779375 113.25 -18.93375 113.25 -18.0625 113.25 C-13.01399477 114.71865607 -10.66449438 118.09921349 -7.625 122.25 C-6.79162109 123.35408203 -6.79162109 123.35408203 -5.94140625 124.48046875 C-4.1509412 128.2473522 -4.17842724 131.72824849 -4.25 135.8125 C-4.25797607 136.63733887 -4.26595215 137.46217773 -4.27416992 138.31201172 C-4.413768 144.56152901 -5.03056166 150.69276199 -5.9375 156.875 C-6.11369873 158.08071655 -6.11369873 158.08071655 -6.29345703 159.31079102 C-7.19153662 164.8386257 -8.71001032 169.99141483 -10.625 175.25 C-26.01363676 176.82026906 -43.05074205 166.82758455 -54.6796875 157.71875 C-72.01785975 143.18595841 -84.82968058 123.1183751 -87.625 100.25 C-88.40023417 86.1053528 -88.29778004 72.71679888 -83.625 59.25 C-83.26277344 58.18910156 -82.90054688 57.12820312 -82.52734375 56.03515625 C-78.01330001 44.1456241 -70.48242341 34.2560379 -61.625 25.25 C-60.87734375 24.48945312 -60.1296875 23.72890625 -59.359375 22.9453125 C-42.90896823 7.20303582 -22.5047879 0.10217838 0 0 Z " fill="#FBFAF6" transform="translate(95.625,7.75)"/>
<path d="M0 0 C0.33 0 0.66 0 1 0 C1 27.72 1 55.44 1 84 C-27.38 84 -55.76 84 -85 84 C-85 83.67 -85 83.34 -85 83 C-84.07960938 82.84144531 -83.15921875 82.68289062 -82.2109375 82.51953125 C-63.20050076 79.01557091 -45.47235077 72.09760242 -31 59 C-30.24332031 58.32453125 -29.48664063 57.6490625 -28.70703125 56.953125 C-12.90899697 42.05239732 -3.35713772 21.29527655 0 0 Z " fill="#FCFBF6" transform="translate(191,108)"/>
<path d="M0 0 C27.72 0 55.44 0 84 0 C84 28.05 84 56.1 84 85 C83.67 85 83.34 85 83 85 C82.85304688 84.1028125 82.70609375 83.205625 82.5546875 82.28125 C78.64431053 60.52696895 69.75909279 42.57504499 54 27 C53.27167969 26.26136719 52.54335937 25.52273437 51.79296875 24.76171875 C45.63501749 18.87796198 38.48591953 14.91999165 31 11 C30.0821875 10.51402344 29.164375 10.02804687 28.21875 9.52734375 C22.16496258 6.54603579 16.03414836 4.82158415 9.48095703 3.34277344 C5.95934281 2.54434374 3.27207173 1.63603586 0 0 Z " fill="#FCFBF7" transform="translate(108,0)"/>
<path d="M0 0 C1.91719535 3.83439069 2.87528101 7.37234152 3.8125 11.5 C8.02096227 28.8881631 16.36504039 43.34351576 29 56 C29.74636719 56.75796875 30.49273438 57.5159375 31.26171875 58.296875 C45.90917301 72.33906256 64.29339029 79.48976015 84 83 C84 83.33 84 83.66 84 84 C56.28 84 28.56 84 0 84 C0 56.28 0 28.56 0 0 Z " fill="#FCFBF7" transform="translate(0,108)"/>
<path d="M0 0 C27.72 0 55.44 0 84 0 C84 0.33 84 0.66 84 1 C82.7625 1.22042969 82.7625 1.22042969 81.5 1.4453125 C60.08469916 5.60408744 42.36580444 14.45235172 27 30 C26.27296875 30.71671875 25.5459375 31.4334375 24.796875 32.171875 C11.5193709 46.07666276 2.86482484 65.93311749 1 85 C0.67 85 0.34 85 0 85 C0 56.95 0 28.9 0 0 Z " fill="#FDFCF7" transform="translate(0,0)"/>
<path d="M0 0 C3.31686552 0.01786463 3.9727453 0.14069624 6.6875 2.3125 C7.1825 2.9725 7.6775 3.6325 8.1875 4.3125 C8.64125 3.6525 9.095 2.9925 9.5625 2.3125 C13.02963119 -0.32912376 15.48933089 -0.38498164 19.76953125 -0.1953125 C22.39129582 0.35530041 23.48006232 0.89080318 25.3125 2.8125 C27.54916878 6.98761505 28.02467042 9.69426319 27.1875 14.3125 C25.892873 17.99196622 25.16835083 19.75919953 21.75 21.6875 C19.1875 22.3125 19.1875 22.3125 15.1875 22.3125 C14.8575 21.6525 14.5275 20.9925 14.1875 20.3125 C13.63964844 20.63476562 13.09179688 20.95703125 12.52734375 21.2890625 C8.26555011 23.15315254 3.74329129 22.87944292 -0.8125 22.3125 C-3.81447464 20.51131522 -5.26416366 19.40917268 -6.8125 16.3125 C-7.20366409 12.71379038 -7.29091359 10.96810381 -5.125 8 C-2.61651508 6.16948398 -0.87167167 5.65240796 2.1875 5.3125 C2.1875 4.6525 2.1875 3.9925 2.1875 3.3125 C1.32125 3.8075 1.32125 3.8075 0.4375 4.3125 C-1.8125 5.3125 -1.8125 5.3125 -5.8125 5.3125 C-4.69989224 0.38523707 -4.69989224 0.38523707 0 0 Z " fill="#ECECEC" transform="translate(85.8125,43.6875)"/>
<path d="M0 0 C3.4792124 1.27125068 5.46485319 2.37566205 7.875 5.1875 C9.34876772 8.8719193 9.66615444 12.12419235 9 16 C7.4375 19.4375 7.4375 19.4375 5 22 C1.25 22.875 1.25 22.875 -2 23 C-2.33 22.01 -2.66 21.02 -3 20 C-3.639375 20.495 -4.27875 20.99 -4.9375 21.5 C-9.06762454 23.52291814 -12.48066356 23.83544071 -17 23 C-20.19012379 21.47928421 -22.3873535 19.43246814 -23.80859375 16.109375 C-24.375 14.1875 -24.375 14.1875 -25 11 C-23.329375 11.061875 -23.329375 11.061875 -21.625 11.125 C-17.95633975 11.41121859 -17.95633975 11.41121859 -16 9 C-16 8.01 -16 7.02 -16 6 C-16.99 5.67 -17.98 5.34 -19 5 C-19 5.99 -19 6.98 -19 8 C-20.32 8 -21.64 8 -23 8 C-23.125 5.625 -23.125 5.625 -23 3 C-21 1 -21 1 -18.125 0.8125 C-15 1 -15 1 -12.875 1.625 C-10.94956889 2.21311211 -10.94956889 2.21311211 -9.1875 1.0625 C-5.98596688 -0.49253037 -3.51949444 -0.30340469 0 0 Z " fill="#ECECEC" transform="translate(155,87)"/>
<path d="M0 0 C4.70588235 0.70588235 4.70588235 0.70588235 6 2 C8.02408755 1.90997602 10.04544287 1.75358962 12.0625 1.5625 C13.16722656 1.46066406 14.27195312 1.35882813 15.41015625 1.25390625 C16.69212891 1.12822266 16.69212891 1.12822266 18 1 C18.03738281 1.68707031 18.07476562 2.37414062 18.11328125 3.08203125 C18.21189453 4.43361328 18.21189453 4.43361328 18.3125 5.8125 C18.37050781 6.70582031 18.42851563 7.59914063 18.48828125 8.51953125 C19.07403509 11.3588724 19.91620898 12.0935529 22 14 C22.1875 16.6875 22.1875 16.6875 22 19 C20.7625 19.20625 19.525 19.4125 18.25 19.625 C14.5462346 20.51181707 14.13010966 20.81929214 11.75 24.125 C11.1725 25.07375 10.595 26.0225 10 27 C8.68 27 7.36 27 6 27 C5.690625 26.071875 5.38125 25.14375 5.0625 24.1875 C2.2030293 19.76831801 -1.04727562 19.18366998 -6 18 C-5.41385929 15.06312654 -5.03928669 14.04285821 -2.9375 11.75 C-0.25073216 7.93652307 -0.77025988 5.59480243 -1 1 C-0.67 0.67 -0.34 0.34 0 0 Z " fill="#F5F5F5" transform="translate(88,84)"/>
<path d="M0 0 C2 2 2 2 2.125 5.625 C2.08375 6.73875 2.0425 7.8525 2 9 C0.88625 9.12375 -0.2275 9.2475 -1.375 9.375 C-5.03103677 9.6465813 -5.03103677 9.6465813 -7 12 C-6.6814823 14.10820797 -6.6814823 14.10820797 -6 16 C-3.58380177 16.25030977 -3.58380177 16.25030977 -1 16 C-0.34 15.01 0.32 14.02 1 13 C2.32 13 3.64 13 5 13 C5.33 13.99 5.66 14.98 6 16 C7.98 16 9.96 16 12 16 C12.33 14.02 12.66 12.04 13 10 C10.03 9.67 7.06 9.34 4 9 C3.63896848 2.6217765 3.63896848 2.6217765 5.125 0.0625 C7.85984439 -1.48724515 9.9124407 -1.32162076 13 -1 C13.99 -0.34 14.98 0.32 16 1 C16 2.32 16 3.64 16 5 C14.68 5 13.36 5 12 5 C12 4.34 12 3.68 12 3 C10.68 3 9.36 3 8 3 C8 3.66 8 4.32 8 5 C8.928125 5.103125 9.85625 5.20625 10.8125 5.3125 C14.16501127 6.03559067 14.98335069 6.36649325 17 9 C17.86106961 13.21225944 17.68195258 16.88159776 15.4375 20.5625 C11.56682091 22.84520818 7.96546048 22.47808498 3.6875 21.4375 C3.130625 21.293125 2.57375 21.14875 2 21 C1.34 21.33 0.68 21.66 0 22 C-7.14136126 22.69109948 -7.14136126 22.69109948 -10.5625 19.9375 C-12.40779739 16.16667491 -12.00376838 14.0150735 -11 10 C-10.67 9.67 -10.34 9.34 -10 9 C-10.66 8.67 -11.32 8.34 -12 8 C-12 7.01 -12 6.02 -12 5 C-8.7 5 -5.4 5 -2 5 C-2 4.34 -2 3.68 -2 3 C-4.64 3.33 -7.28 3.66 -10 4 C-9.625 2.0625 -9.625 2.0625 -9 0 C-5.88135455 -1.55932272 -3.33704665 -0.65549131 0 0 Z " fill="#ECECEB" transform="translate(43,88)"/>
<path d="M0 0 C0.66 0 1.32 0 2 0 C2 1.65 2 3.3 2 5 C3.670625 4.9690625 3.670625 4.9690625 5.375 4.9375 C9 5 9 5 11 6 C11.04254356 7.99954746 11.04080783 10.00041636 11 12 C10 13 10 13 6.9375 13.0625 C5.968125 13.041875 4.99875 13.02125 4 13 C3.67 11.68 3.34 10.36 3 9 C1.68 9 0.36 9 -1 9 C-1.66 10.32 -2.32 11.64 -3 13 C-5.375 13.125 -5.375 13.125 -8 13 C-8.66 12.34 -9.32 11.68 -10 11 C-9.63318342 8.06546739 -9.13562754 7.13562754 -7 5 C-3.375 4.875 -3.375 4.875 0 5 C0 3.35 0 1.7 0 0 Z " fill="#0E0E0E" transform="translate(45,92)"/>
<path d="M0 0 C3.44178233 0.58762137 4.55049381 1.60578758 6.5625 4.4375 C7.0625 7.4375 7.0625 7.4375 6.5625 10.4375 C4.75 12.8125 4.75 12.8125 2.5625 14.4375 C1.5725 14.4375 0.5825 14.4375 -0.4375 14.4375 C-0.52 13.179375 -0.6025 11.92125 -0.6875 10.625 C-1.10307143 7.09938788 -1.10307143 7.09938788 -3.5 4.4375 C-4.139375 4.1075 -4.77875 3.7775 -5.4375 3.4375 C-3.69857595 1.24096435 -2.79998966 0.50256225 0 0 Z " fill="#131312" transform="translate(102.4375,47.5625)"/>
<path d="M0 0 C1.134375 0.020625 2.26875 0.04125 3.4375 0.0625 C3.7675 0.7225 4.0975 1.3825 4.4375 2.0625 C6.96483235 2.71805119 6.96483235 2.71805119 9.4375 3.0625 C8.5625 6.9375 8.5625 6.9375 7.4375 8.0625 C5.2578125 8.265625 5.2578125 8.265625 2.5625 8.3125 C1.67820312 8.33828125 0.79390625 8.3640625 -0.1171875 8.390625 C-2.5625 8.0625 -2.5625 8.0625 -4.3984375 6.6796875 C-5.5625 5.0625 -5.5625 5.0625 -5.3125 2.9375 C-4.00055507 -0.34236231 -3.8874589 0.06820103 0 0 Z " fill="#090909" transform="translate(88.5625,52.9375)"/>
<path d="M0 0 C7.10583942 -0.60218978 7.10583942 -0.60218978 11.0625 2.0625 C13 5 13 5 12.9375 8.6875 C12 12 12 12 10 14 C8.68 14 7.36 14 6 14 C6.0825 12.7625 6.165 11.525 6.25 10.25 C6.26146573 7.00519727 6.21627505 6.27394839 4.125 3.625 C3.42375 3.08875 2.7225 2.5525 2 2 C1.34 1.34 0.68 0.68 0 0 Z " fill="#0E0E0E" transform="translate(147,92)"/>
<path d="M0 0 C2.375 -0.125 2.375 -0.125 5 0 C5.66 0.66 6.32 1.32 7 2 C6.75 4.5625 6.75 4.5625 6 7 C3.75487738 8.12256131 2.48543351 8.13413762 0 8.125 C-1.051875 8.12886719 -1.051875 8.12886719 -2.125 8.1328125 C-4 8 -4 8 -6 7 C-6 6.34 -6 5.68 -6 5 C-4.34467377 3.98133771 -2.67739862 2.98189187 -1 2 C-0.67 1.34 -0.34 0.68 0 0 Z " fill="#0F0F0E" transform="translate(143,97)"/>
</svg>
